<svg width="399" height="399" viewBox="0 0 399 399" fill="none" xmlns="http://www.w3.org/2000/svg">
<path d="M27.7738 106.386C25.0388 102.257 28.2012 96.7799 33.1444 97.0841L90.9328 100.64C94.6287 100.867 97.6463 97.7257 97.2703 94.042L91.3904 36.4436C90.8874 31.5166 96.2331 28.1363 100.469 30.7028L149.985 60.7071C153.152 62.626 157.284 61.2465 158.663 57.81L180.224 4.07661C182.068 -0.519763 188.373 -1.02869 190.93 3.21231L220.831 52.7912C222.744 55.9621 227.044 56.6608 229.862 54.2588L273.924 16.7001C277.693 13.4873 283.512 15.9664 283.806 20.9103L287.241 78.7059C287.461 82.4023 290.944 85.0192 294.555 84.2019L351.025 71.4221C355.855 70.3289 359.855 75.2282 357.818 79.7423L334.001 132.514C332.478 135.89 334.345 139.825 337.923 140.78L393.863 155.707C398.649 156.984 399.914 163.18 396.012 166.231L350.399 201.89C347.482 204.171 347.306 208.523 350.03 211.031L392.626 250.245C396.27 253.599 394.51 259.674 389.638 260.562L332.678 270.939C329.035 271.603 326.857 275.375 328.103 278.862L347.597 333.38C349.264 338.043 344.883 342.605 340.156 341.126L284.898 323.844C281.364 322.739 277.682 325.067 277.166 328.734L269.09 386.065C268.4 390.97 262.4 392.973 258.902 389.467L218.005 348.484C215.389 345.863 211.047 346.214 208.886 349.221L175.092 396.233C172.201 400.254 165.959 399.24 164.49 394.51L147.323 339.216C146.225 335.679 142.217 333.972 138.906 335.63L87.1359 361.552C82.7075 363.77 77.6512 359.97 78.549 355.099L89.0446 298.161C89.7158 294.519 86.9608 291.145 83.2586 291.074L25.3714 289.969C20.4197 289.874 17.7083 284.16 20.7668 280.265L56.5208 234.726C58.8074 231.813 57.9361 227.545 54.6908 225.762L3.9481 197.881C-0.392448 195.497 -0.13777 189.177 4.38061 187.149L57.2022 163.442C60.5804 161.926 61.7924 157.742 59.7475 154.655L27.7738 106.386Z" fill="black"/>
</svg>
